<?xml version="1.0" encoding="utf-8"?>
<svg xmlns="http://www.w3.org/2000/svg" width="512px" height="512px" viewBox="0 0 512 512" xmlns:bx="https://boxy-svg.com">
  <defs>
    <bx:export>
      <bx:file format="png" path="logo-maskable.png" width="512" height="512">
        <bx:variant scale="2" suffix="@2x"/>
      </bx:file>
      <bx:file format="png" path="favicon.png" width="360" height="360" excluded="true"/>
    </bx:export>
  </defs>
  <ellipse style="fill: rgb(251, 229, 229);" cx="256" cy="256" rx="256" ry="256"/>
  <g transform="matrix(0.778282, 0, 0, 0.778282, 56.847557, 56.334534)" style="">
    <title>Pill</title>
    <path style="fill:#63cdf9; stroke:none;" d="M 211 211 L 242.011 242.039 L 296 296 L 327.495 327.32 C 327.495 327.32 347.448 307.138 357.039 298.424 C 367.625 288.807 377.125 278.277 387.039 268 C 393.497 261.307 400.608 255.201 406.536 248 C 419.506 232.246 429.057 210.614 429.961 190 C 430.84 169.942 427.427 150.731 417.688 133 C 395.385 92.393 345.784 74.021 302 86.428 C 265.26 96.839 239.981 129.019 214 155 L 193.481 175.635 C 190.829 178.23 185.293 183.771 185.293 183.771 L 197.778 196.32 C 197.778 196.32 204.929 189.055 210 188.323 C 215.646 187.507 221.735 193.25 220.304 198.996 C 219.108 203.799 211 211 211 211 Z">
      <title>Blue</title>
    </path>
    <path style="fill:#fbe5e5; stroke:none;" d="M324 100.424C311.058 102.145 298.472 105.331 287 111.879C270.726 121.168 258.095 135.905 245 149C239.307 154.693 229.792 161.309 226.894 169C224.592 175.11 228.219 181.715 235.001 181.801C243.2 181.905 249.782 172.218 255 167C268.672 153.328 281.931 136.555 299 127.039C315.148 118.037 334.726 116.887 352 123.09C359.537 125.797 370.719 137.092 378.985 134.091C391.805 129.436 381.882 117.275 375 112.951C360.736 103.99 340.899 98.1784 324 100.424z">
      <title>Blue Lighting</title>
    </path>
    <path style="fill:#f7adbb; stroke:none;" d="M 327.641 327.292 L 300 299 L 238.712 237.576 L 219.747 218.681 L 211.558 210.176 L 202.572 219.197 L 185.961 235.015 L 147.95 272.95 C 147.95 272.95 130.314 290.015 124.489 301 C 114.988 318.917 115.923 342.081 124.756 360 C 128.275 367.139 138.785 378.182 127.957 384.292 C 123.861 386.603 119.775 382.636 117.015 379.957 C 108.923 372.099 105.154 361.586 102.154 351 C 93.735 321.297 105.093 289.259 126.428 267.961 C 140.379 254.034 167.939 226.504 167.939 226.504 L 182.475 212.07 L 197.679 196.339 L 185.269 183.747 C 185.269 183.747 179.641 189.453 178 191.019 C 173.955 194.881 170.01 198.895 166.17 202.961 C 152.545 217.385 138.039 230.981 124 245 C 112.205 256.777 100.376 269.162 92.489 284 C 82.206 303.348 79.249 329.588 83.666 351 C 86.418 364.341 91.682 377.968 99.757 389 C 134.215 436.078 205.82 445.189 249.576 405.482 C 276.397 381.143 327.641 327.292 327.641 327.292 Z">
      <title>Pink</title>
    </path>
  </g>
</svg>